<?xml version="1.0" standalone="no"?>
<!DOCTYPE svg PUBLIC "-//W3C//DTD SVG 20010904//EN"
 "http://www.w3.org/TR/2001/REC-SVG-20010904/DTD/svg10.dtd">
<svg version="1.0" xmlns="http://www.w3.org/2000/svg"
 width="64.000000pt" height="64.000000pt" viewBox="0 0 64.000000 64.000000"
 preserveAspectRatio="xMidYMid meet">

<g transform="translate(0.000000,64.000000) scale(0.100000,-0.100000)"
fill="#000000" stroke="none">
<path d="M245 631 c-92 -24 -173 -90 -215 -176 -33 -69 -34 -199 -2 -265 35
-71 75 -114 144 -151 58 -31 70 -34 148 -33 72 0 93 4 136 26 75 40 107 70
145 140 31 58 34 70 34 148 0 78 -3 90 -34 148 -57 104 -144 160 -260 167 -36
2 -79 1 -96 -4z m103 -118 c2 -14 10 -23 21 -23 29 0 51 -23 45 -47 -5 -19
-12 -22 -63 -20 -50 2 -56 0 -59 -19 -2 -16 8 -25 49 -44 61 -29 89 -62 89
-105 0 -36 -30 -80 -60 -90 -11 -3 -20 -17 -22 -33 -2 -21 -9 -28 -30 -30 -24
-3 -28 0 -28 22 0 21 -7 27 -40 36 -33 9 -40 15 -40 35 0 32 11 37 62 26 33
-8 48 -7 65 5 32 21 19 40 -48 74 -62 32 -79 52 -79 95 0 37 16 62 50 80 17 9
30 24 30 34 0 24 10 32 35 29 12 -2 21 -12 23 -25z"/>
<style>
    path { fill: #000; }
    @media (prefers-color-scheme: dark) {
        path { fill: #FFF; }
    }
</style>
</g>
</svg>
